<?xml version="1.0" encoding="utf-8" standalone="no"?>
<!DOCTYPE svg PUBLIC "-//W3C//DTD SVG 1.1//EN"
  "http://www.w3.org/Graphics/SVG/1.1/DTD/svg11.dtd">
<svg xmlns:xlink="http://www.w3.org/1999/xlink" width="460.8pt" height="345.6pt" viewBox="0 0 460.8 345.6" xmlns="http://www.w3.org/2000/svg" version="1.1">
 <metadata>
  <rdf:RDF xmlns:dc="http://purl.org/dc/elements/1.1/" xmlns:cc="http://creativecommons.org/ns#" xmlns:rdf="http://www.w3.org/1999/02/22-rdf-syntax-ns#">
   <cc:Work>
    <dc:type rdf:resource="http://purl.org/dc/dcmitype/StillImage"/>
    <dc:date>2025-07-13T17:01:38.767019</dc:date>
    <dc:format>image/svg+xml</dc:format>
    <dc:creator>
     <cc:Agent>
      <dc:title>Matplotlib v3.10.1, https://matplotlib.org/</dc:title>
     </cc:Agent>
    </dc:creator>
   </cc:Work>
  </rdf:RDF>
 </metadata>
 <defs>
  <style type="text/css">*{stroke-linejoin: round; stroke-linecap: butt}</style>
 </defs>
 <g id="figure_1">
  <g id="patch_1">
   <path d="M 0 345.6 
L 460.8 345.6 
L 460.8 0 
L 0 0 
z
" style="fill: #ffffff"/>
  </g>
  <g id="axes_1">
   <g id="patch_2">
    <path d="M 57.6 307.584 
L 414.72 307.584 
L 414.72 41.472 
L 57.6 41.472 
z
" style="fill: #ffffff"/>
   </g>
   <g id="matplotlib.axis_1">
    <g id="xtick_1">
     <g id="line2d_1">
      <defs>
       <path id="me11c718fbb" d="M 0 0 
L 0 3.5 
" style="stroke: #000000; stroke-width: 0.8"/>
      </defs>
      <g>
       <use xlink:href="#me11c718fbb" x="80.136093" y="307.584" style="stroke: #000000; stroke-width: 0.8"/>
      </g>
     </g>
     <g id="text_1">
      <!-- −20000 -->
      <g transform="translate(60.039999 322.182437) scale(0.1 -0.1)">
       <defs>
        <path id="DejaVuSans-2212" d="M 678 2272 
L 4684 2272 
L 4684 1741 
L 678 1741 
L 678 2272 
z
" transform="scale(0.015625)"/>
        <path id="DejaVuSans-32" d="M 1228 531 
L 3431 531 
L 3431 0 
L 469 0 
L 469 531 
Q 828 903 1448 1529 
Q 2069 2156 2228 2338 
Q 2531 2678 2651 2914 
Q 2772 3150 2772 3378 
Q 2772 3750 2511 3984 
Q 2250 4219 1831 4219 
Q 1534 4219 1204 4116 
Q 875 4013 500 3803 
L 500 4441 
Q 881 4594 1212 4672 
Q 1544 4750 1819 4750 
Q 2544 4750 2975 4387 
Q 3406 4025 3406 3419 
Q 3406 3131 3298 2873 
Q 3191 2616 2906 2266 
Q 2828 2175 2409 1742 
Q 1991 1309 1228 531 
z
" transform="scale(0.015625)"/>
        <path id="DejaVuSans-30" d="M 2034 4250 
Q 1547 4250 1301 3770 
Q 1056 3291 1056 2328 
Q 1056 1369 1301 889 
Q 1547 409 2034 409 
Q 2525 409 2770 889 
Q 3016 1369 3016 2328 
Q 3016 3291 2770 3770 
Q 2525 4250 2034 4250 
z
M 2034 4750 
Q 2819 4750 3233 4129 
Q 3647 3509 3647 2328 
Q 3647 1150 3233 529 
Q 2819 -91 2034 -91 
Q 1250 -91 836 529 
Q 422 1150 422 2328 
Q 422 3509 836 4129 
Q 1250 4750 2034 4750 
z
" transform="scale(0.015625)"/>
       </defs>
       <use xlink:href="#DejaVuSans-2212"/>
       <use xlink:href="#DejaVuSans-32" transform="translate(83.789062 0)"/>
       <use xlink:href="#DejaVuSans-30" transform="translate(147.412109 0)"/>
       <use xlink:href="#DejaVuSans-30" transform="translate(211.035156 0)"/>
       <use xlink:href="#DejaVuSans-30" transform="translate(274.658203 0)"/>
       <use xlink:href="#DejaVuSans-30" transform="translate(338.28125 0)"/>
      </g>
     </g>
    </g>
    <g id="xtick_2">
     <g id="line2d_2">
      <g>
       <use xlink:href="#me11c718fbb" x="158.148047" y="307.584" style="stroke: #000000; stroke-width: 0.8"/>
      </g>
     </g>
     <g id="text_2">
      <!-- −10000 -->
      <g transform="translate(138.051953 322.182437) scale(0.1 -0.1)">
       <defs>
        <path id="DejaVuSans-31" d="M 794 531 
L 1825 531 
L 1825 4091 
L 703 3866 
L 703 4441 
L 1819 4666 
L 2450 4666 
L 2450 531 
L 3481 531 
L 3481 0 
L 794 0 
L 794 531 
z
" transform="scale(0.015625)"/>
       </defs>
       <use xlink:href="#DejaVuSans-2212"/>
       <use xlink:href="#DejaVuSans-31" transform="translate(83.789062 0)"/>
       <use xlink:href="#DejaVuSans-30" transform="translate(147.412109 0)"/>
       <use xlink:href="#DejaVuSans-30" transform="translate(211.035156 0)"/>
       <use xlink:href="#DejaVuSans-30" transform="translate(274.658203 0)"/>
       <use xlink:href="#DejaVuSans-30" transform="translate(338.28125 0)"/>
      </g>
     </g>
    </g>
    <g id="xtick_3">
     <g id="line2d_3">
      <g>
       <use xlink:href="#me11c718fbb" x="236.16" y="307.584" style="stroke: #000000; stroke-width: 0.8"/>
      </g>
     </g>
     <g id="text_3">
      <!-- 0 -->
      <g transform="translate(232.97875 322.182437) scale(0.1 -0.1)">
       <use xlink:href="#DejaVuSans-30"/>
      </g>
     </g>
    </g>
    <g id="xtick_4">
     <g id="line2d_4">
      <g>
       <use xlink:href="#me11c718fbb" x="314.171953" y="307.584" style="stroke: #000000; stroke-width: 0.8"/>
      </g>
     </g>
     <g id="text_4">
      <!-- 10000 -->
      <g transform="translate(298.265703 322.182437) scale(0.1 -0.1)">
       <use xlink:href="#DejaVuSans-31"/>
       <use xlink:href="#DejaVuSans-30" transform="translate(63.623047 0)"/>
       <use xlink:href="#DejaVuSans-30" transform="translate(127.246094 0)"/>
       <use xlink:href="#DejaVuSans-30" transform="translate(190.869141 0)"/>
       <use xlink:href="#DejaVuSans-30" transform="translate(254.492188 0)"/>
      </g>
     </g>
    </g>
    <g id="xtick_5">
     <g id="line2d_5">
      <g>
       <use xlink:href="#me11c718fbb" x="392.183907" y="307.584" style="stroke: #000000; stroke-width: 0.8"/>
      </g>
     </g>
     <g id="text_5">
      <!-- 20000 -->
      <g transform="translate(376.277657 322.182437) scale(0.1 -0.1)">
       <use xlink:href="#DejaVuSans-32"/>
       <use xlink:href="#DejaVuSans-30" transform="translate(63.623047 0)"/>
       <use xlink:href="#DejaVuSans-30" transform="translate(127.246094 0)"/>
       <use xlink:href="#DejaVuSans-30" transform="translate(190.869141 0)"/>
       <use xlink:href="#DejaVuSans-30" transform="translate(254.492188 0)"/>
      </g>
     </g>
    </g>
   </g>
   <g id="matplotlib.axis_2">
    <g id="ytick_1">
     <g id="line2d_6">
      <defs>
       <path id="m0ff897b27c" d="M 0 0 
L -3.5 0 
" style="stroke: #000000; stroke-width: 0.8"/>
      </defs>
      <g>
       <use xlink:href="#m0ff897b27c" x="57.6" y="293.069203" style="stroke: #000000; stroke-width: 0.8"/>
      </g>
     </g>
     <g id="text_6">
      <!-- −400 -->
      <g transform="translate(23.132812 296.868422) scale(0.1 -0.1)">
       <defs>
        <path id="DejaVuSans-34" d="M 2419 4116 
L 825 1625 
L 2419 1625 
L 2419 4116 
z
M 2253 4666 
L 3047 4666 
L 3047 1625 
L 3713 1625 
L 3713 1100 
L 3047 1100 
L 3047 0 
L 2419 0 
L 2419 1100 
L 313 1100 
L 313 1709 
L 2253 4666 
z
" transform="scale(0.015625)"/>
       </defs>
       <use xlink:href="#DejaVuSans-2212"/>
       <use xlink:href="#DejaVuSans-34" transform="translate(83.789062 0)"/>
       <use xlink:href="#DejaVuSans-30" transform="translate(147.412109 0)"/>
       <use xlink:href="#DejaVuSans-30" transform="translate(211.035156 0)"/>
      </g>
     </g>
    </g>
    <g id="ytick_2">
     <g id="line2d_7">
      <g>
       <use xlink:href="#m0ff897b27c" x="57.6" y="252.489868" style="stroke: #000000; stroke-width: 0.8"/>
      </g>
     </g>
     <g id="text_7">
      <!-- −200 -->
      <g transform="translate(23.132812 256.289087) scale(0.1 -0.1)">
       <use xlink:href="#DejaVuSans-2212"/>
       <use xlink:href="#DejaVuSans-32" transform="translate(83.789062 0)"/>
       <use xlink:href="#DejaVuSans-30" transform="translate(147.412109 0)"/>
       <use xlink:href="#DejaVuSans-30" transform="translate(211.035156 0)"/>
      </g>
     </g>
    </g>
    <g id="ytick_3">
     <g id="line2d_8">
      <g>
       <use xlink:href="#m0ff897b27c" x="57.6" y="211.910533" style="stroke: #000000; stroke-width: 0.8"/>
      </g>
     </g>
     <g id="text_8">
      <!-- 0 -->
      <g transform="translate(44.2375 215.709752) scale(0.1 -0.1)">
       <use xlink:href="#DejaVuSans-30"/>
      </g>
     </g>
    </g>
    <g id="ytick_4">
     <g id="line2d_9">
      <g>
       <use xlink:href="#m0ff897b27c" x="57.6" y="171.331198" style="stroke: #000000; stroke-width: 0.8"/>
      </g>
     </g>
     <g id="text_9">
      <!-- 200 -->
      <g transform="translate(31.5125 175.130416) scale(0.1 -0.1)">
       <use xlink:href="#DejaVuSans-32"/>
       <use xlink:href="#DejaVuSans-30" transform="translate(63.623047 0)"/>
       <use xlink:href="#DejaVuSans-30" transform="translate(127.246094 0)"/>
      </g>
     </g>
    </g>
    <g id="ytick_5">
     <g id="line2d_10">
      <g>
       <use xlink:href="#m0ff897b27c" x="57.6" y="130.751863" style="stroke: #000000; stroke-width: 0.8"/>
      </g>
     </g>
     <g id="text_10">
      <!-- 400 -->
      <g transform="translate(31.5125 134.551081) scale(0.1 -0.1)">
       <use xlink:href="#DejaVuSans-34"/>
       <use xlink:href="#DejaVuSans-30" transform="translate(63.623047 0)"/>
       <use xlink:href="#DejaVuSans-30" transform="translate(127.246094 0)"/>
      </g>
     </g>
    </g>
    <g id="ytick_6">
     <g id="line2d_11">
      <g>
       <use xlink:href="#m0ff897b27c" x="57.6" y="90.172528" style="stroke: #000000; stroke-width: 0.8"/>
      </g>
     </g>
     <g id="text_11">
      <!-- 600 -->
      <g transform="translate(31.5125 93.971746) scale(0.1 -0.1)">
       <defs>
        <path id="DejaVuSans-36" d="M 2113 2584 
Q 1688 2584 1439 2293 
Q 1191 2003 1191 1497 
Q 1191 994 1439 701 
Q 1688 409 2113 409 
Q 2538 409 2786 701 
Q 3034 994 3034 1497 
Q 3034 2003 2786 2293 
Q 2538 2584 2113 2584 
z
M 3366 4563 
L 3366 3988 
Q 3128 4100 2886 4159 
Q 2644 4219 2406 4219 
Q 1781 4219 1451 3797 
Q 1122 3375 1075 2522 
Q 1259 2794 1537 2939 
Q 1816 3084 2150 3084 
Q 2853 3084 3261 2657 
Q 3669 2231 3669 1497 
Q 3669 778 3244 343 
Q 2819 -91 2113 -91 
Q 1303 -91 875 529 
Q 447 1150 447 2328 
Q 447 3434 972 4092 
Q 1497 4750 2381 4750 
Q 2619 4750 2861 4703 
Q 3103 4656 3366 4563 
z
" transform="scale(0.015625)"/>
       </defs>
       <use xlink:href="#DejaVuSans-36"/>
       <use xlink:href="#DejaVuSans-30" transform="translate(63.623047 0)"/>
       <use xlink:href="#DejaVuSans-30" transform="translate(127.246094 0)"/>
      </g>
     </g>
    </g>
    <g id="ytick_7">
     <g id="line2d_12">
      <g>
       <use xlink:href="#m0ff897b27c" x="57.6" y="49.593192" style="stroke: #000000; stroke-width: 0.8"/>
      </g>
     </g>
     <g id="text_12">
      <!-- 800 -->
      <g transform="translate(31.5125 53.392411) scale(0.1 -0.1)">
       <defs>
        <path id="DejaVuSans-38" d="M 2034 2216 
Q 1584 2216 1326 1975 
Q 1069 1734 1069 1313 
Q 1069 891 1326 650 
Q 1584 409 2034 409 
Q 2484 409 2743 651 
Q 3003 894 3003 1313 
Q 3003 1734 2745 1975 
Q 2488 2216 2034 2216 
z
M 1403 2484 
Q 997 2584 770 2862 
Q 544 3141 544 3541 
Q 544 4100 942 4425 
Q 1341 4750 2034 4750 
Q 2731 4750 3128 4425 
Q 3525 4100 3525 3541 
Q 3525 3141 3298 2862 
Q 3072 2584 2669 2484 
Q 3125 2378 3379 2068 
Q 3634 1759 3634 1313 
Q 3634 634 3220 271 
Q 2806 -91 2034 -91 
Q 1263 -91 848 271 
Q 434 634 434 1313 
Q 434 1759 690 2068 
Q 947 2378 1403 2484 
z
M 1172 3481 
Q 1172 3119 1398 2916 
Q 1625 2713 2034 2713 
Q 2441 2713 2670 2916 
Q 2900 3119 2900 3481 
Q 2900 3844 2670 4047 
Q 2441 4250 2034 4250 
Q 1625 4250 1398 4047 
Q 1172 3844 1172 3481 
z
" transform="scale(0.015625)"/>
       </defs>
       <use xlink:href="#DejaVuSans-38"/>
       <use xlink:href="#DejaVuSans-30" transform="translate(63.623047 0)"/>
       <use xlink:href="#DejaVuSans-30" transform="translate(127.246094 0)"/>
      </g>
     </g>
    </g>
   </g>
   <g id="line2d_13">
    <path d="M 73.832727 211.910533 
L 123.081673 212.020872 
L 123.510739 211.974488 
L 124.571702 211.853641 
L 124.914954 211.904181 
L 125.289412 211.937859 
L 126.014923 211.937572 
L 129.033986 211.965708 
L 129.463051 211.920364 
L 130.016936 211.907937 
L 130.797056 211.916034 
L 131.616181 211.903383 
L 131.990639 211.878692 
L 132.731752 211.83857 
L 133.246631 212.010383 
L 133.613287 212.04843 
L 133.753709 212.062909 
L 133.76151 212.05526 
L 133.940937 211.986124 
L 133.95654 212.00245 
L 134.167172 212.108168 
L 134.174973 212.101396 
L 134.424612 212.014886 
L 134.557232 211.97437 
L 134.752262 211.70003 
L 134.80687 211.770804 
L 134.93949 211.900171 
L 134.978496 211.864406 
L 135.173526 211.784879 
L 135.352954 211.79056 
L 135.571387 211.800687 
L 136.148676 211.92006 
L 136.359308 211.952166 
L 136.811777 211.915087 
L 137.038012 211.933534 
L 137.272048 211.966756 
L 138.254998 211.945538 
L 138.45783 211.947764 
L 138.637257 211.917294 
L 138.832287 211.959819 
L 139.549997 211.899112 
L 139.869846 211.860468 
L 140.330116 211.79418 
L 140.642164 211.609586 
L 140.962013 211.867172 
L 141.547103 212.473016 
L 141.632916 212.357252 
L 141.812344 211.987833 
L 141.866952 212.050586 
L 141.976169 212.157339 
L 142.022976 212.099598 
L 142.186801 211.883488 
L 142.233608 211.929334 
L 142.350626 211.980564 
L 142.381831 211.94149 
L 142.631469 211.732753 
L 142.756288 211.669108 
L 142.982523 211.376691 
L 143.02933 211.412721 
L 143.918666 212.056315 
L 144.121497 212.071836 
L 144.293124 211.976994 
L 144.316527 211.998672 
L 144.456949 212.047904 
L 144.480352 212.022495 
L 144.628575 211.922682 
L 144.65978 211.954776 
L 144.839207 212.061218 
L 144.862611 212.040602 
L 145.034237 212.020108 
L 145.283875 212.072854 
L 145.416496 211.954822 
L 145.564718 211.786428 
L 145.611526 211.8303 
L 145.728544 211.902974 
L 145.76755 211.859356 
L 145.884567 211.761727 
L 145.923573 211.815635 
L 146.079597 212.065185 
L 146.134206 211.997857 
L 146.337037 211.843208 
L 146.508663 211.804955 
L 146.664687 211.827813 
L 146.875319 211.880167 
L 147.101554 211.809006 
L 147.358993 211.901843 
L 147.678842 211.933116 
L 148.256131 212.202667 
L 148.458962 212.335093 
L 148.466763 212.328934 
L 148.622787 212.032411 
L 148.802215 211.920399 
L 148.895829 211.790868 
L 149.044052 211.50915 
L 149.090859 211.568404 
L 149.223479 211.765166 
L 149.270286 211.692647 
L 149.410708 211.420812 
L 149.457515 211.495233 
L 149.660346 212.020872 
L 149.730557 211.928872 
L 149.902183 211.729734 
L 149.933388 211.752183 
L 150.159623 211.81791 
L 150.27664 211.884026 
L 150.565285 212.214112 
L 150.885134 212.255512 
L 151.048959 212.296081 
L 151.064561 212.276337 
L 151.423416 211.946721 
L 151.626247 212.140991 
L 151.688657 212.021292 
L 151.813476 211.850379 
L 151.860283 211.889247 
L 151.9695 211.930502 
L 152.000705 211.89192 
L 152.141126 211.764325 
L 152.180132 211.805789 
L 152.328355 211.906069 
L 152.35956 211.878191 
L 152.554589 211.82381 
L 152.812029 211.868074 
L 153.631154 211.832334 
L 153.951003 212.019426 
L 154.247449 212.056502 
L 154.403473 212.007648 
L 154.629707 211.944259 
L 155.089978 211.820424 
L 155.339616 211.696183 
L 155.49564 211.707771 
L 155.503441 211.698235 
L 155.682869 211.58846 
L 155.706272 211.60791 
L 155.979314 211.83073 
L 156.01832 211.760572 
L 156.182145 211.271324 
L 156.260157 211.383205 
L 156.291362 211.397536 
L 156.330368 211.301302 
L 156.478591 210.431895 
L 156.541 210.828865 
L 156.907656 213.934335 
L 156.938861 214.069291 
L 156.985668 213.777682 
L 157.45374 206.31774 
L 157.555156 207.105109 
L 157.578559 207.026624 
L 157.64877 205.213906 
L 157.750186 202.191773 
L 157.804794 203.253466 
L 157.945215 208.255296 
L 158.015426 207.296147 
L 158.054432 206.939133 
L 158.093438 207.579897 
L 158.241661 213.934267 
L 158.319673 211.617426 
L 158.405486 208.647575 
L 158.460094 209.990411 
L 158.616118 216.319943 
L 158.678528 215.605466 
L 158.709733 215.404465 
L 158.748739 215.932905 
L 158.95157 224.233333 
L 159.076389 222.384927 
L 159.08419 222.364985 
L 159.107594 222.508929 
L 159.185606 225.147799 
L 159.326027 230.073634 
L 159.372834 229.321201 
L 159.856508 216.093891 
L 159.911117 216.131631 
L 159.957924 215.986574 
L 160.074942 215.260002 
L 160.137351 215.476427 
L 160.168556 215.557045 
L 160.207562 215.31761 
L 160.308978 212.385494 
L 160.402592 210.392962 
L 160.449399 210.931816 
L 160.574218 213.147594 
L 160.628827 212.678133 
L 160.886266 206.744389 
L 161.04229 201.623984 
L 161.089097 202.11672 
L 161.206115 203.805535 
L 161.260723 203.401999 
L 161.658584 197.16894 
L 161.775602 197.670423 
L 161.814608 197.471705 
L 161.931626 195.046976 
L 162.196867 191.135263 
L 162.228072 191.060823 
L 162.267078 191.311798 
L 162.368493 194.163594 
L 163.265631 227.943443 
L 163.601082 231.634578 
L 163.65569 231.281066 
L 163.741504 230.679049 
L 163.796112 230.971666 
L 163.897528 231.778862 
L 163.944335 231.412283 
L 164.084756 227.504921 
L 164.755659 208.185119 
L 164.896081 207.867006 
L 164.997496 206.409921 
L 165.106713 205.280553 
L 165.161321 205.433177 
L 165.254936 205.738296 
L 165.309544 205.639866 
L 165.410959 205.458116 
L 165.465568 205.508143 
L 165.527977 205.521727 
L 165.566983 205.467571 
L 165.613791 205.420827 
L 165.652796 205.515674 
L 165.73861 206.590612 
L 166.019453 211.874063 
L 166.081862 211.616034 
L 166.292494 209.813414 
L 166.362705 210.177474 
L 166.604542 212.938632 
L 166.690355 212.557651 
L 166.877584 211.629885 
L 166.91659 211.688117 
L 167.11162 212.296185 
L 167.181831 212.132769 
L 167.462674 211.303805 
L 167.486077 211.313796 
L 167.610897 211.526382 
L 167.76692 211.767427 
L 167.805926 211.725867 
L 168.102372 211.446263 
L 168.788877 211.819523 
L 169.217943 212.090972 
L 169.233545 212.066706 
L 169.498786 211.399927 
L 169.576798 211.593257 
L 169.803032 212.754884 
L 169.881044 212.512668 
L 170.11508 211.169157 
L 170.17749 211.297362 
L 170.450532 212.531364 
L 170.544146 212.351185 
L 170.762579 212.057624 
L 171.098031 212.296249 
L 171.215049 212.521029 
L 171.254055 212.453316 
L 171.456886 211.719631 
L 171.5505 211.878986 
L 171.651916 211.967163 
L 171.698723 211.936843 
L 171.815741 211.982952 
L 171.94056 212.096457 
L 171.979566 212.04801 
L 172.197999 211.741316 
L 172.244807 211.778853 
L 172.619264 212.014762 
L 173.032727 212.074529 
L 173.344775 212.044325 
L 173.539805 212.031463 
L 173.758238 212.055537 
L 174.062485 211.942463 
L 174.241913 211.904717 
L 174.444744 211.880244 
L 174.655376 211.863487 
L 174.850406 211.899731 
L 175.061038 211.915901 
L 175.263869 211.915421 
L 175.435495 211.893739 
L 175.630525 211.866647 
L 175.802152 211.863519 
L 176.05179 211.740985 
L 177.042542 211.886365 
L 177.260975 211.827564 
L 177.440403 211.806883 
L 177.573023 211.866532 
L 177.705643 211.889657 
L 177.721246 211.873408 
L 177.869468 211.813203 
L 177.892872 211.836481 
L 178.033293 211.888344 
L 178.056697 211.86463 
L 178.20492 211.798715 
L 178.228323 211.822114 
L 178.454558 211.915818 
L 178.735401 211.906279 
L 179.000642 211.95863 
L 179.226876 211.91151 
L 179.687147 211.935698 
L 180.287839 211.936734 
L 180.787115 212.044817 
L 181.153772 211.960009 
L 181.419012 211.950677 
L 181.816873 211.996895 
L 182.893438 211.916607 
L 183.283498 211.974567 
L 183.868588 211.834278 
L 184.952954 211.855442 
L 185.179188 211.836992 
L 185.491236 211.962184 
L 185.748676 211.93442 
L 186.458584 211.981646 
L 186.965662 212.047145 
L 187.870601 211.902165 
L 187.99542 212.005382 
L 188.034426 211.95357 
L 188.276263 211.506528 
L 188.346474 211.566151 
L 188.697528 211.749719 
L 188.947166 211.77305 
L 189.126593 211.85388 
L 189.352828 211.918415 
L 189.641472 211.876199 
L 189.867707 211.947265 
L 190.171953 211.858401 
L 190.452796 211.897884 
L 190.624423 211.809842 
L 190.640025 211.822546 
L 190.874061 211.881665 
L 191.568367 211.968001 
L 192.208065 211.971909 
L 192.488908 211.908244 
L 193.027191 211.966938 
L 193.292432 212.017421 
L 193.518666 211.89768 
L 193.620082 211.887483 
L 193.643485 211.921803 
L 193.838515 212.401273 
L 193.908726 212.195568 
L 194.173967 210.170757 
L 194.283183 210.620265 
L 194.415804 211.013635 
L 194.45481 210.998634 
L 194.532822 211.064215 
L 194.64984 211.749977 
L 195.055502 215.98658 
L 195.180321 216.721027 
L 195.219327 216.591325 
L 195.328544 215.031697 
L 195.461164 213.607876 
L 195.507971 213.758807 
L 195.585983 214.015187 
L 195.63279 213.82786 
L 195.765411 212.947775 
L 195.820019 213.178133 
L 195.905832 213.64026 
L 195.96044 213.385009 
L 196.061856 212.499926 
L 196.116464 212.920483 
L 196.280289 216.297025 
L 196.342699 215.28727 
L 196.818572 200.115472 
L 196.896584 201.019995 
L 197.216433 207.830831 
L 197.286644 206.857553 
L 197.372457 205.139958 
L 197.419264 205.854634 
L 197.622095 216.183447 
L 197.715709 213.05269 
L 197.84833 209.189232 
L 197.895137 209.540253 
L 198.105769 213.907174 
L 198.324203 219.288993 
L 198.37101 219.032144 
L 198.605046 216.87693 
L 198.667455 217.01717 
L 198.862485 218.058738 
L 198.917093 217.67082 
L 199.02631 214.33613 
L 199.205738 208.731069 
L 199.252545 209.167404 
L 199.533388 215.245642 
L 199.619201 214.003388 
L 199.814231 208.752389 
L 199.884442 209.574766 
L 200.079472 212.780266 
L 200.126279 212.606788 
L 200.251098 210.77934 
L 200.399321 208.836168 
L 200.446128 209.105368 
L 200.781579 211.58788 
L 200.875193 211.920233 
L 200.929802 211.772341 
L 201.054621 211.190837 
L 201.109229 211.366077 
L 201.24185 212.09896 
L 201.304259 211.878115 
L 201.686518 209.168216 
L 201.748927 209.357241 
L 201.904951 211.054301 
L 202.318415 214.987302 
L 202.334017 214.990705 
L 202.357421 214.921511 
L 202.443234 213.849626 
L 202.67727 209.94552 
L 202.731878 210.247597 
L 203.012721 213.833579 
L 203.129739 213.420353 
L 203.184347 213.34723 
L 203.246757 213.408045 
L 203.285763 213.389957 
L 203.309166 213.315841 
L 203.433986 212.172949 
L 203.519799 211.722983 
L 203.574407 211.889129 
L 203.668021 212.222348 
L 203.714829 212.077003 
L 203.902057 210.909093 
L 203.980069 211.118173 
L 204.229707 212.453073 
L 204.299918 212.160544 
L 204.487147 210.534319 
L 204.557358 210.882893 
L 204.775791 212.907893 
L 204.838201 212.65782 
L 205.064435 210.272393 
L 205.150249 210.824791 
L 205.376483 213.020253 
L 205.42329 212.913682 
L 205.688531 211.536653 
L 205.789947 211.73084 
L 206.00838 212.036952 
L 206.367235 211.894694 
L 206.66368 211.920747 
L 206.975728 211.933629 
L 207.31118 211.749654 
L 208.645184 211.888643 
L 209.589129 211.920561 
L 209.823165 211.795203 
L 209.846568 211.824077 
L 210.049399 212.078434 
L 210.104008 212.015628 
L 210.244429 211.946894 
L 210.267833 211.965419 
L 210.392652 211.966134 
L 210.408254 211.945547 
L 210.572079 211.819775 
L 210.603284 211.845261 
L 210.782712 211.866177 
L 211.001145 211.878361 
L 211.773463 211.933907 
L 211.921686 212.018691 
L 211.94509 211.998953 
L 212.233734 211.861887 
L 212.576986 211.974096 
L 212.772016 211.98399 
L 213.169877 211.885751 
L 213.427317 211.980822 
L 213.442919 211.959608 
L 213.64575 211.861869 
L 214.347858 211.83862 
L 214.659906 211.799546 
L 214.995357 211.968454 
L 215.229393 212.020098 
L 215.611651 212.01483 
L 216.017314 212.053695 
L 216.399572 211.839764 
L 216.664813 211.74266 
L 216.859843 211.633914 
L 217.148487 211.722817 
L 217.265505 211.661566 
L 217.405926 211.606966 
L 217.42933 211.631157 
L 217.772583 211.875842 
L 217.905203 211.794426 
L 218.053426 211.677452 
L 218.08463 211.710531 
L 218.248455 211.878294 
L 218.295263 211.826993 
L 218.396678 211.756866 
L 218.435684 211.813457 
L 218.615112 212.161013 
L 218.66972 212.093569 
L 218.794539 211.993011 
L 218.833545 212.031289 
L 218.99737 212.089038 
L 219.012973 212.076086 
L 219.293816 211.983154 
L 219.481044 211.99421 
L 220.066134 212.124072 
L 220.674627 211.791482 
L 220.861856 211.804993 
L 221.095892 211.746414 
L 221.40794 212.010477 
L 221.509355 212.064306 
L 221.548361 212.02103 
L 221.758993 211.770805 
L 221.805801 211.810817 
L 222.266071 212.134954 
L 222.414294 212.080487 
L 222.632727 211.982897 
L 223.069594 212.012446 
L 223.288028 211.791563 
L 223.311431 211.80884 
L 223.670286 211.99586 
L 223.982334 211.750527 
L 224.036942 211.850953 
L 224.15396 211.962765 
L 224.192966 211.926541 
L 224.380195 211.863271 
L 224.988688 212.148333 
L 225.417754 212.079888 
L 225.729802 212.189604 
L 226.088657 212.189594 
L 226.197874 212.291989 
L 226.23688 212.243695 
L 226.455313 211.817269 
L 226.525524 211.899833 
L 226.75956 212.080745 
L 227.180824 211.882979 
L 227.196427 211.907563 
L 227.360252 212.139649 
L 227.407059 212.073742 
L 227.625492 211.785471 
L 227.648896 211.796942 
L 227.953142 211.836788 
L 228.311997 211.234336 
L 228.452419 211.019953 
L 228.483624 211.03677 
L 228.624045 211.274423 
L 228.78787 211.750188 
L 228.842479 211.657575 
L 228.943894 211.499352 
L 228.998503 211.554394 
L 229.053111 211.565894 
L 229.084316 211.502234 
L 229.185731 211.215317 
L 229.232539 211.352392 
L 229.365159 212.201392 
L 229.419767 211.869098 
L 229.56799 210.357747 
L 229.630399 210.651697 
L 229.817628 211.245507 
L 229.903441 212.039091 
L 229.989254 212.849813 
L 230.036062 212.543049 
L 230.2857 208.028285 
L 230.402718 208.654626 
L 230.527537 211.199114 
L 230.667958 214.175002 
L 230.714766 213.698032 
L 230.894193 209.589558 
L 230.972205 210.497313 
L 231.128229 212.794919 
L 231.175036 212.584342 
L 231.346662 210.18258 
L 231.487084 208.405935 
L 231.533891 208.684259 
L 231.752325 212.271934 
L 231.861541 211.519077 
L 231.962957 211.00657 
L 232.009764 211.09814 
L 232.095577 211.321271 
L 232.142384 211.204616 
L 232.282806 209.815598 
L 232.516842 206.15488 
L 232.953709 196.725268 
L 232.977112 196.786949 
L 233.281359 199.189978 
L 233.710425 212.32567 
L 233.913256 232.212119 
L 234.404731 282.576278 
L 234.638767 295.488 
L 234.685574 294.364988 
L 234.818194 281.568538 
L 235.426688 197.154232 
L 235.855753 114.760181 
L 236.003976 95.206955 
L 236.16 53.568 
L 236.214608 61.251757 
L 236.651475 152.183811 
L 237.314577 263.94091 
L 237.681233 295.488 
L 237.759245 292.882867 
L 238.063492 268.215243 
L 238.648581 209.937479 
L 238.882617 202.383484 
L 239.007436 199.981867 
L 239.202466 197.723551 
L 239.264876 197.439951 
L 239.366291 196.725268 
L 239.413098 197.039725 
L 239.569122 200.972958 
L 240.060598 210.077608 
L 240.224423 211.321271 
L 240.27123 211.233668 
L 240.364844 211.008433 
L 240.40385 211.114728 
L 240.567675 212.271934 
L 240.630085 211.810203 
L 240.832916 208.405935 
L 240.910928 209.10833 
L 241.191771 212.794919 
L 241.238578 212.565927 
L 241.425807 209.589558 
L 241.503819 210.811708 
L 241.652042 214.175002 
L 241.70665 213.594285 
L 242.0343 208.028285 
L 242.065505 208.09506 
L 242.143517 209.117937 
L 242.330746 212.849813 
L 242.393155 212.351072 
L 242.588185 211.18167 
L 242.650595 210.941812 
L 242.75201 210.357747 
L 242.806618 210.638561 
L 242.954841 212.201392 
L 243.025052 211.850457 
L 243.134269 211.215317 
L 243.188877 211.335544 
L 243.290293 211.577116 
L 243.344901 211.525713 
L 243.40731 211.509038 
L 243.446316 211.57824 
L 243.547732 211.750005 
L 243.594539 211.663987 
L 243.898786 211.018242 
L 243.906587 211.021294 
L 244.000201 211.207544 
L 244.257641 211.703188 
L 244.585291 211.835204 
L 244.819327 211.852855 
L 244.990953 212.141322 
L 245.045561 212.068377 
L 245.271796 211.850333 
L 245.75547 211.964223 
L 245.903693 211.819359 
L 245.942699 211.869028 
L 246.153331 212.291896 
L 246.223542 212.202495 
L 246.379566 212.112087 
L 246.395168 212.122357 
L 246.746222 212.233678 
L 247.268902 212.100694 
L 247.432727 212.109854 
L 247.822787 211.914475 
L 248.150437 211.951399 
L 248.228449 211.944261 
L 248.251853 211.910299 
L 248.407877 211.719646 
L 248.454684 211.769808 
L 248.782334 212.070551 
L 248.907153 211.947729 
L 249.109984 211.794661 
L 249.125587 211.807539 
L 249.383026 212.068695 
L 249.453237 211.991603 
L 249.617062 211.986874 
L 250.25676 212.017189 
L 250.662422 211.81531 
L 250.685826 211.855356 
L 250.857452 212.066441 
L 250.896458 212.03103 
L 251.270915 211.728012 
L 251.442542 211.791918 
L 251.621969 211.809848 
L 251.777993 211.807466 
L 251.785794 211.817811 
L 252.004228 211.949596 
L 252.144649 211.990613 
L 252.40989 212.168472 
L 252.597119 212.112012 
L 252.877962 211.97547 
L 253.06519 212.005947 
L 253.447449 212.078659 
L 253.58787 212.001778 
L 253.619075 212.041948 
L 253.736093 212.160275 
L 253.775099 212.107011 
L 253.954527 211.751215 
L 254.024737 211.826993 
L 254.126153 211.874397 
L 254.157358 211.838136 
L 254.321183 211.675924 
L 254.360189 211.715082 
L 254.594225 211.856371 
L 255.109103 211.71787 
L 255.233923 211.667847 
L 255.421151 211.627764 
L 255.694193 211.80741 
L 255.858018 211.860095 
L 256.014042 211.896092 
L 256.435307 212.135076 
L 256.692746 212.020939 
L 257.035999 212.003179 
L 257.316842 211.974792 
L 257.714703 211.789962 
L 257.995546 211.851066 
L 258.377804 211.929497 
L 258.775665 211.863138 
L 259.13452 211.89842 
L 259.267141 211.925061 
L 259.469972 211.957918 
L 259.992652 211.872083 
L 260.296898 211.918352 
L 260.499729 211.996431 
L 260.515332 211.977279 
L 260.702561 211.872864 
L 260.718163 211.88477 
L 260.975602 211.950295 
L 261.178433 211.889996 
L 261.498282 211.850155 
L 261.763523 211.811221 
L 261.87274 211.885731 
L 262.020963 211.989439 
L 262.052167 211.965419 
L 262.184788 211.973484 
L 262.192589 211.983436 
L 262.325209 212.078605 
L 262.364215 212.030952 
L 262.582649 211.781408 
L 262.613853 211.803983 
L 262.98051 211.983336 
L 264.197496 211.859809 
L 264.766983 211.819801 
L 265.172645 211.792298 
L 265.648518 211.923856 
L 265.98397 211.907669 
L 266.405234 212.003438 
L 266.545656 211.686153 
L 266.63927 211.537781 
L 266.686077 211.617272 
L 266.818698 212.424715 
L 266.943517 213.020253 
L 266.990324 212.908991 
L 267.107342 211.674975 
L 267.255565 210.272393 
L 267.302372 210.463139 
L 267.544209 212.907893 
L 267.637823 212.356436 
L 267.832853 210.534319 
L 267.887461 210.756991 
L 268.090293 212.453073 
L 268.168304 212.186305 
L 268.417943 210.909093 
L 268.46475 211.015087 
L 268.65978 212.221453 
L 268.745593 211.889129 
L 268.800201 211.722983 
L 268.85481 211.906264 
L 269.065442 213.412312 
L 269.159056 213.355983 
L 269.244869 213.643857 
L 269.31508 213.833806 
L 269.361887 213.664475 
L 269.478905 212.003081 
L 269.64273 209.94552 
L 269.681736 210.085975 
L 269.790953 211.917308 
L 269.993784 214.993684 
L 270.024989 214.917096 
L 270.165411 213.677342 
L 270.633482 209.168216 
L 270.703693 209.344367 
L 270.906524 210.835571 
L 271.07815 212.09896 
L 271.124958 211.957148 
L 271.265379 211.190837 
L 271.327789 211.392355 
L 271.444807 211.920233 
L 271.499415 211.78301 
L 271.819264 209.83806 
L 271.920679 208.836168 
L 271.975288 209.14773 
L 272.240528 212.780266 
L 272.31854 212.176388 
L 272.505769 208.752389 
L 272.57598 209.780912 
L 272.786612 215.245642 
L 272.849022 214.758748 
L 273.020648 210.260101 
L 273.114262 208.731069 
L 273.16107 209.204223 
L 273.301491 214.67354 
L 273.465316 218.060119 
L 273.48872 218.007446 
L 273.722756 216.878462 
L 273.792966 217.143827 
L 273.995797 219.288993 
L 274.066008 218.587976 
L 274.47167 209.189232 
L 274.549682 210.586058 
L 274.697905 216.183447 
L 274.760315 214.595052 
L 274.947543 205.139958 
L 275.017754 206.449719 
L 275.103567 207.830831 
L 275.150374 207.326337 
L 275.501428 200.115472 
L 275.563838 200.88293 
L 275.899289 212.155458 
L 276.039711 216.297025 
L 276.086518 215.822552 
L 276.258144 212.499926 
L 276.328355 213.056638 
L 276.414168 213.64026 
L 276.468776 213.406407 
L 276.554589 212.947775 
L 276.609198 213.153519 
L 276.741818 214.016542 
L 276.796427 213.838228 
L 276.866637 213.608967 
L 276.905643 213.778251 
L 277.046065 215.985861 
L 277.139679 216.721027 
L 277.194288 216.546809 
L 277.397119 214.565776 
L 277.802781 211.028334 
L 278.083624 210.357477 
L 278.153835 210.1711 
L 278.200642 210.305839 
L 278.364467 211.850001 
L 278.489286 212.401865 
L 278.528292 212.352685 
L 278.762328 211.87014 
L 278.824737 211.920225 
L 279.074376 212.019096 
L 279.355219 211.921062 
L 279.55805 211.914487 
L 279.831092 211.908244 
L 280.21335 212.062345 
L 280.377175 212.054497 
L 280.642416 211.98294 
L 281.640969 211.857624 
L 281.812595 211.826675 
L 281.820396 211.835647 
L 282.03883 211.944102 
L 282.311872 211.852483 
L 282.670727 211.883428 
L 282.865757 211.852802 
L 283.1466 211.897458 
L 283.435244 211.78755 
L 283.661478 211.724999 
L 284.12955 211.547701 
L 284.363586 212.008516 
L 284.449399 211.902165 
L 284.636628 211.812069 
L 285.56497 212.032186 
L 286.750752 211.970315 
L 286.953583 211.882252 
L 287.242227 211.824301 
L 287.445058 211.913624 
L 287.593281 211.884036 
L 287.764907 211.882669 
L 287.975539 211.952562 
L 288.396804 211.846559 
L 288.63084 211.8841 
L 288.911683 211.932227 
L 289.6762 211.879672 
L 289.93364 211.878757 
L 290.144272 211.873168 
L 290.510928 211.998212 
L 290.900988 211.950677 
L 291.158427 211.956235 
L 291.6343 212.066929 
L 292.601648 211.93101 
L 293.545593 211.936493 
L 293.779629 211.883837 
L 294.068273 211.850266 
L 294.200893 211.796915 
L 294.224297 211.81949 
L 294.380321 211.886109 
L 294.403724 211.862468 
L 294.544146 211.81381 
L 294.56755 211.83768 
L 294.723573 211.889953 
L 294.739176 211.874679 
L 294.926405 211.832905 
L 295.098031 211.804515 
L 295.246254 211.856445 
L 295.495892 211.945692 
L 296.049777 211.779746 
L 296.322818 211.72588 
L 296.471041 211.806543 
L 296.666071 211.884493 
L 296.861101 211.872692 
L 297.063932 211.91063 
L 297.258962 211.915901 
L 297.453992 211.910205 
L 297.695829 211.877516 
L 297.914262 211.861648 
L 298.085889 211.91101 
L 298.280919 211.931614 
L 298.468147 211.967418 
L 298.733388 212.065495 
L 298.959623 212.033324 
L 299.224863 212.087977 
L 300.036187 211.821472 
L 300.192211 211.752505 
L 300.215615 211.781072 
L 300.418446 212.097515 
L 300.488657 212.007523 
L 300.613476 211.931849 
L 300.644681 211.953437 
L 300.738295 211.935763 
L 300.753897 211.910011 
L 300.878717 211.722946 
L 300.925524 211.817582 
L 301.120554 212.522477 
L 301.190764 212.389808 
L 301.409198 212.084327 
L 301.736848 212.241595 
L 301.885071 212.530745 
L 301.931878 212.452695 
L 302.080101 211.627249 
L 302.20492 211.169157 
L 302.251727 211.24635 
L 302.384347 212.11873 
L 302.516968 212.754884 
L 302.563775 212.659849 
L 302.836817 211.396076 
L 302.938232 211.590123 
L 303.148864 212.113095 
L 303.195672 212.068902 
L 303.468713 211.853589 
L 303.632539 211.70033 
L 303.960189 211.456883 
L 304.404857 211.506393 
L 304.584284 211.767611 
L 304.631092 211.711197 
L 304.896332 211.309808 
L 304.935338 211.348399 
L 305.052356 211.722631 
L 305.216181 212.296939 
L 305.262988 212.226372 
L 305.450217 211.629201 
L 305.520428 211.805125 
L 305.715458 212.938632 
L 305.785668 212.608093 
L 306.027506 209.813414 
L 306.113319 210.305116 
L 306.300547 211.874063 
L 306.347355 211.689091 
L 306.456571 209.786367 
L 306.714011 205.420874 
L 306.729613 205.432873 
L 306.83883 205.522704 
L 306.893438 205.466779 
L 306.948047 205.481085 
L 306.97145 205.528537 
L 307.072866 205.736495 
L 307.119673 205.620546 
L 307.213287 205.280553 
L 307.252293 205.440077 
L 307.626751 209.502775 
L 307.790576 213.446998 
L 307.852985 213.137423 
L 307.88419 213.013182 
L 307.923196 213.297809 
L 308.01681 216.838876 
L 308.383466 231.5192 
L 308.422472 231.778862 
L 308.477081 231.477596 
L 308.578496 230.679049 
L 308.633105 230.968036 
L 308.726719 231.63504 
L 308.773526 231.286263 
L 309.18699 223.658715 
L 309.436628 217.580472 
L 309.616055 209.117487 
L 310.084127 191.076982 
L 310.099729 191.059731 
L 310.130934 191.182639 
L 310.294759 193.119477 
L 310.544398 197.670423 
L 310.653614 197.173082 
L 310.669217 197.178062 
L 310.684819 197.239618 
L 310.770632 198.564385 
L 311.113885 203.805535 
L 311.152891 203.55286 
L 311.27771 201.623984 
L 311.332318 202.357331 
L 311.745782 213.147594 
L 311.784788 212.84311 
L 311.917408 210.392962 
L 311.979818 211.340874 
L 312.151444 215.557045 
L 312.213853 215.329195 
L 312.245058 215.260002 
L 312.291865 215.435961 
L 312.603913 218.466549 
L 312.993973 230.073634 
L 313.04078 229.422279 
L 313.23581 222.364985 
L 313.329424 223.833989 
L 313.36843 224.233333 
L 313.415237 223.556115 
L 313.914514 208.647575 
L 313.95352 209.429931 
L 314.078339 213.934267 
L 314.132947 212.372099 
L 314.265568 206.939133 
L 314.327977 207.731166 
L 314.374785 208.255296 
L 314.421592 207.483513 
L 314.569814 202.191773 
L 314.632224 203.634997 
L 314.757043 207.106064 
L 314.819453 206.644644 
L 314.86626 206.31774 
L 314.913067 206.656429 
L 315.381139 214.069291 
L 315.451349 213.560197 
L 315.841409 210.431895 
L 315.84921 210.432694 
L 315.903819 210.690097 
L 316.036439 211.400166 
L 316.091047 211.328732 
L 316.153457 211.275763 
L 316.192463 211.351287 
L 316.371891 211.840157 
L 316.4343 211.786098 
L 316.730746 211.588973 
L 316.738547 211.596295 
L 316.980384 211.696183 
L 317.136408 211.706065 
L 317.417251 211.85467 
L 317.588877 211.898129 
L 317.815112 211.935247 
L 318.462611 212.028372 
L 318.634237 211.896071 
L 318.860472 211.78856 
L 319.429959 211.860158 
L 320.194476 211.756921 
L 320.288091 211.841083 
L 320.405109 211.940549 
L 320.444115 211.906687 
L 320.54553 211.858831 
L 320.584536 211.914526 
L 320.74056 212.156566 
L 320.795168 212.093455 
L 321.005801 211.954248 
L 321.208632 212.198513 
L 321.356854 212.318655 
L 321.388059 212.296453 
L 321.6533 212.213459 
L 321.965348 212.062991 
L 322.152576 211.81443 
L 322.17598 211.826248 
L 322.339805 211.801363 
L 322.480226 211.740497 
L 322.511431 211.778195 
L 322.683058 212.018148 
L 322.729865 211.947334 
L 322.924895 211.419828 
L 322.995105 211.543204 
L 323.119925 211.767422 
L 323.166732 211.707042 
L 323.299352 211.511307 
L 323.346159 211.581066 
L 323.6114 211.922766 
L 323.720617 212.083819 
L 323.931249 212.344732 
L 323.946851 212.337149 
L 324.141881 212.085242 
L 324.352513 211.994961 
L 325.257452 211.779 
L 325.390072 211.821828 
L 325.592903 211.886676 
L 325.83474 211.820741 
L 326.02977 211.824442 
L 326.138987 211.910326 
L 326.271607 212.062734 
L 326.310613 212.011933 
L 326.474439 211.759257 
L 326.529047 211.823977 
L 326.646065 211.901576 
L 326.685071 211.860481 
L 326.802089 211.79326 
L 326.833293 211.829124 
L 327.121938 212.075662 
L 327.636817 211.986637 
L 327.753835 211.920714 
L 327.785039 211.950809 
L 327.948864 212.052244 
L 327.980069 212.023192 
L 328.128292 211.987073 
L 328.143894 212.004072 
L 328.354527 212.089244 
L 329.431092 211.410831 
L 329.446694 211.434568 
L 329.735338 211.713111 
L 329.852356 211.784214 
L 330.031784 211.986547 
L 330.07079 211.948272 
L 330.180006 211.886006 
L 330.219012 211.936459 
L 330.375036 212.156593 
L 330.421843 212.102758 
L 330.538861 211.992701 
L 330.577867 212.049539 
L 330.796301 212.468401 
L 330.85871 212.404848 
L 331.147355 212.186016 
L 331.279975 212.004483 
L 331.514011 211.780036 
L 331.818257 211.686115 
L 332.278528 211.901856 
L 332.543768 211.841912 
L 332.777804 211.902925 
L 333.097653 211.932472 
L 334.852922 211.960237 
L 335.913885 211.937462 
L 336.186927 211.906302 
L 336.475571 211.789567 
L 337.3181 211.833698 
L 337.427317 211.896328 
L 337.466323 211.851168 
L 337.606744 211.696693 
L 337.653551 211.75229 
L 337.910991 212.00649 
L 338.082617 212.038564 
L 338.277647 212.105437 
L 338.285448 212.097609 
L 338.496081 211.98861 
L 338.511683 212.004288 
L 338.69111 212.064316 
L 338.698912 212.05665 
L 338.94855 211.948951 
L 339.205989 211.983517 
L 339.837886 211.852392 
L 340.71162 211.901416 
L 341.164089 211.894604 
L 344.409387 211.86938 
L 344.82285 211.852701 
L 345.056886 211.823514 
L 345.821403 211.914444 
L 346.188059 211.934873 
L 348.466008 211.946025 
L 349.199321 212.025323 
L 352.358805 211.914794 
L 352.928292 211.900726 
L 365.940686 211.909508 
L 398.487273 211.910533 
L 398.487273 211.910533 
" clip-path="url(#p19630f349f)" style="fill: none; stroke: #1f77b4; stroke-width: 1.5; stroke-linecap: square"/>
   </g>
   <g id="line2d_14">
    <path d="M 73.832727 211.910533 
L 133.636691 212.018994 
L 133.800516 211.98574 
L 133.972142 212.007018 
L 134.198377 212.061469 
L 134.440214 212.031181 
L 134.580635 211.976619 
L 134.760063 211.818619 
L 134.799069 211.856546 
L 134.962894 211.926486 
L 134.978496 211.912473 
L 135.189129 211.861961 
L 135.407562 211.825384 
L 140.298912 211.862646 
L 140.595357 211.689049 
L 140.712375 211.732171 
L 141.001019 211.96499 
L 141.336471 212.155935 
L 141.632916 212.220859 
L 141.640717 212.206732 
L 141.827946 211.98013 
L 141.866952 212.013402 
L 141.999572 212.047634 
L 142.022976 212.019941 
L 142.202403 211.901651 
L 142.225807 211.920728 
L 142.397433 211.924549 
L 142.662674 211.796475 
L 142.810897 211.659758 
L 142.998125 211.544446 
L 143.005926 211.549689 
L 143.622221 211.861273 
L 144.066889 212.038815 
L 144.683183 211.903633 
L 144.870412 211.935516 
L 145.057641 211.919312 
L 145.322881 211.989369 
L 145.907971 211.793005 
L 146.0952 212.007742 
L 146.142007 211.959163 
L 146.352639 211.864445 
L 146.906524 211.874721 
L 147.117156 211.847033 
L 147.382397 211.912114 
L 147.72565 211.970032 
L 148.24833 212.160617 
L 148.490167 212.261569 
L 148.661793 211.951049 
L 148.817817 211.924329 
L 148.911431 211.798718 
L 149.044052 211.594966 
L 149.090859 211.652979 
L 149.223479 211.828221 
L 149.270286 211.764866 
L 149.410708 211.551663 
L 149.457515 211.610295 
L 149.675948 211.969514 
L 149.730557 211.919783 
L 149.964593 211.792142 
L 150.159623 211.809638 
L 150.27664 211.844082 
L 150.284442 211.857186 
L 150.557483 212.136539 
L 150.86173 212.139677 
L 151.126971 212.106897 
L 151.361007 211.948093 
L 151.556036 212.066412 
L 151.680856 212.014165 
L 151.852482 211.913627 
L 151.868084 211.925184 
L 152.016307 211.90594 
L 152.187933 211.829016 
L 152.203536 211.842905 
L 152.398566 211.877025 
L 152.609198 211.857199 
L 152.858836 211.878272 
L 153.100673 211.921202 
L 153.724769 211.978913 
L 153.951003 212.055466 
L 154.216244 212.077918 
L 154.403473 212.03959 
L 154.684316 211.95176 
L 155.784284 211.794883 
L 156.002718 211.958231 
L 156.041724 211.85037 
L 156.189947 211.362519 
L 156.252356 211.461724 
L 156.299163 211.507178 
L 156.338169 211.41339 
L 156.47079 210.703389 
L 156.525398 210.990475 
L 156.899855 213.874123 
L 156.923259 213.935127 
L 156.962265 213.683568 
L 157.071482 210.595972 
L 157.204102 208.299436 
L 157.243108 208.336399 
L 157.282114 208.2085 
L 157.383529 206.414403 
L 157.445939 205.682207 
L 157.500547 206.156654 
L 157.58636 207.197961 
L 157.633168 206.692854 
L 157.734583 204.802568 
L 157.78139 205.642604 
L 157.937414 211.665018 
L 158.015426 210.338523 
L 158.046631 210.012723 
L 158.085637 210.663494 
L 158.23386 217.995974 
L 158.30407 215.404908 
L 158.413287 209.902373 
L 158.467896 211.595027 
L 158.600516 217.612724 
L 158.655124 216.478488 
L 158.733136 214.808714 
L 158.779943 215.792855 
L 158.943768 222.39081 
L 159.013979 221.319567 
L 159.091991 220.154075 
L 159.138798 220.710942 
L 159.294822 224.462421 
L 159.357232 223.496708 
L 159.918918 210.07276 
L 160.012532 209.214995 
L 160.090544 208.718467 
L 160.152954 208.831145 
L 160.168556 208.827692 
L 160.184159 208.77408 
L 160.254369 207.635039 
L 160.38699 204.582451 
L 160.441598 205.20231 
L 160.58202 207.87403 
L 160.644429 207.469934 
L 160.730242 206.944071 
L 160.792652 207.07415 
L 160.808254 207.076459 
L 160.831658 206.993812 
L 160.917471 205.65534 
L 161.003284 204.459567 
L 161.050091 204.893493 
L 161.23732 208.524706 
L 161.315332 208.041578 
L 161.479157 207.642147 
L 161.588374 207.458685 
L 161.635181 207.58933 
L 161.767801 208.338915 
L 161.82241 208.037171 
L 162.204668 204.697214 
L 162.235873 204.770231 
L 162.313885 205.870941 
L 162.774155 219.198984 
L 162.945782 222.456279 
L 162.976986 222.386381 
L 163.031595 222.249609 
L 163.078402 222.431825 
L 163.250028 224.244587 
L 163.32804 223.737648 
L 163.538673 222.713382 
L 163.663492 220.883238 
L 163.764907 219.992562 
L 163.819516 220.080943 
L 163.842919 220.102209 
L 163.874124 220.009933 
L 163.959937 218.674173 
L 164.256383 208.561557 
L 164.420208 204.166172 
L 164.451412 204.324332 
L 164.545027 205.023972 
L 164.599635 204.703586 
L 164.740057 203.141546 
L 164.802466 203.513253 
L 164.935087 204.45916 
L 164.989695 204.351154 
L 165.028701 204.308987 
L 165.067707 204.44 
L 165.192526 205.993224 
L 165.488971 208.694022 
L 165.730808 210.336733 
L 166.011651 215.031986 
L 166.06626 214.862602 
L 166.3315 212.593043 
L 166.432916 213.142821 
L 166.58894 214.108168 
L 166.635747 214.016068 
L 166.947795 212.576001 
L 167.080415 212.663456 
L 167.166228 212.508968 
L 167.50168 211.786779 
L 167.626499 211.902488 
L 167.759119 212.013083 
L 167.790324 211.97828 
L 168.016559 211.708363 
L 168.063366 211.748639 
L 168.281799 211.812922 
L 168.531438 211.823294 
L 169.155533 212.312779 
L 169.249148 212.154895 
L 169.490985 211.589993 
L 169.537792 211.65179 
L 169.678213 212.271899 
L 169.795231 212.628649 
L 169.842038 212.549193 
L 170.029267 211.538774 
L 170.130683 211.317421 
L 170.169689 211.374938 
L 170.325712 212.102333 
L 170.44273 212.379199 
L 170.489538 212.336451 
L 170.848393 211.962921 
L 171.059025 212.089698 
L 171.215049 212.322465 
L 171.261856 212.252506 
L 171.472488 211.688768 
L 171.5505 211.784153 
L 171.722126 211.840527 
L 171.854747 211.951938 
L 171.956162 211.980545 
L 171.987367 211.943806 
L 172.221403 211.733231 
L 172.244807 211.751421 
L 172.642668 211.962994 
L 173.789443 211.977976 
L 174.085889 211.900411 
L 174.631972 211.812968 
L 174.912815 211.826418 
L 175.388688 211.843278 
L 175.72414 211.865384 
L 175.880164 211.781989 
L 176.059591 211.800109 
L 176.995735 211.862986 
L 177.495011 211.768021 
L 178.14251 211.879423 
L 178.275131 211.949829 
L 178.462359 211.978897 
L 178.7276 212.010157 
L 178.992841 212.026264 
L 179.219075 212.001589 
L 179.593533 211.993379 
L 180.147417 211.881592 
L 180.911935 211.910314 
L 181.481422 211.94731 
L 182.074313 211.913567 
L 182.308349 211.911154 
L 183.150878 211.949144 
L 183.642353 211.899532 
L 183.954401 211.841759 
L 184.219641 211.885936 
L 185.366417 211.904177 
L 185.670664 211.944934 
L 186.645813 211.970286 
L 187.028072 211.989762 
L 187.823794 211.836154 
L 188.011022 211.980278 
L 188.050028 211.921248 
L 188.291865 211.610798 
L 188.315269 211.623862 
L 188.869154 211.837328 
L 189.134394 211.893807 
L 189.360629 211.952699 
L 189.688279 211.995967 
L 189.875508 212.007999 
L 190.140749 211.9351 
L 190.468399 211.906892 
L 190.655628 211.860816 
L 190.881862 211.879508 
L 191.225115 211.887632 
L 191.576169 211.921503 
L 191.935024 212.019103 
L 192.122252 212.012843 
L 192.418698 211.931813 
L 192.941378 211.913457 
L 193.40945 211.994676 
L 193.643485 212.100982 
L 193.861919 212.623352 
L 193.924328 212.490239 
L 194.166165 211.440776 
L 194.244177 211.647862 
L 194.408003 212.107575 
L 194.45481 212.068957 
L 194.548424 212.032174 
L 194.579629 212.076439 
L 194.837068 212.826973 
L 195.078905 213.613468 
L 195.117911 213.577944 
L 195.203724 213.228272 
L 195.351947 211.271023 
L 195.484567 210.223368 
L 195.523573 210.274448 
L 195.585983 210.343196 
L 195.624989 210.2564 
L 195.749808 209.796471 
L 195.804416 210.001818 
L 195.944838 210.795478 
L 196.015049 210.69515 
L 196.038452 210.709306 
L 196.054055 210.766477 
L 196.132067 211.909703 
L 196.303693 215.811966 
L 196.366103 215.173226 
L 196.802969 206.279676 
L 196.865379 207.154995 
L 197.20083 213.08206 
L 197.216433 213.100357 
L 197.247638 212.969888 
L 197.39586 210.835132 
L 197.466071 211.912463 
L 197.606493 215.84662 
L 197.661101 214.873725 
L 197.856131 208.748921 
L 197.926342 209.243645 
L 198.222787 213.629273 
L 198.316401 214.804272 
L 198.37101 214.470503 
L 198.542636 212.839405 
L 198.597244 213.032387 
L 198.854684 214.691935 
L 198.917093 214.342021 
L 199.034111 211.363225 
L 199.174533 208.302047 
L 199.22134 208.708728 
L 199.517785 214.256921 
L 199.603599 213.560813 
L 199.798628 210.133099 
L 199.868839 210.817359 
L 200.048267 213.134117 
L 200.095074 212.971661 
L 200.2667 211.146192 
L 200.383718 210.274183 
L 200.430525 210.442828 
L 200.625555 211.755478 
L 200.711368 211.668282 
L 200.773778 211.765342 
L 200.890796 212.037473 
L 200.937603 211.955804 
L 201.031217 211.765037 
L 201.078025 211.877243 
L 201.234048 212.580275 
L 201.288657 212.392824 
L 201.655313 210.633382 
L 201.670915 210.63845 
L 201.76453 210.823503 
L 201.951758 211.862527 
L 202.302812 214.626252 
L 202.373023 214.311734 
L 202.529047 211.78121 
L 202.67727 210.17297 
L 202.716276 210.274779 
L 202.833293 211.618015 
L 203.012721 213.225846 
L 203.043926 213.186343 
L 203.379377 212.081289 
L 203.511997 211.380899 
L 203.558805 211.483202 
L 203.66022 211.754224 
L 203.707027 211.644028 
L 203.894256 210.796655 
L 203.964467 210.971196 
L 204.229707 212.201738 
L 204.299918 211.965372 
L 204.479346 210.921199 
L 204.533954 211.100716 
L 204.775791 212.763284 
L 204.853803 212.413191 
L 205.064435 210.683154 
L 205.134646 210.969746 
L 205.376483 212.770659 
L 205.446694 212.608269 
L 205.711935 211.603201 
L 205.766543 211.658137 
L 206.094193 211.97345 
L 206.835307 212.010405 
L 206.991331 211.933742 
L 207.233168 211.859513 
L 208.29413 211.91314 
L 208.770003 211.949388 
L 209.511117 211.885539 
L 209.815363 211.761824 
L 209.947984 211.931206 
L 210.072803 212.014689 
L 210.104008 211.990625 
L 210.283435 211.970502 
L 210.423857 211.942872 
L 210.611085 211.883752 
L 210.790513 211.881154 
L 211.016747 211.867138 
L 212.179126 211.855311 
L 212.576986 211.938683 
L 212.818824 211.952018 
L 213.232287 211.984535 
L 213.411714 212.03324 
L 213.762768 211.8821 
L 214.293249 211.878913 
L 214.519484 211.8308 
L 215.307405 211.919288 
L 215.627254 211.976055 
L 215.962705 212.006192 
L 216.485385 211.893854 
L 216.633608 211.830171 
L 216.852042 211.738913 
L 217.288908 211.697814 
L 217.42933 211.712442 
L 217.788185 211.893953 
L 217.936408 211.799806 
L 218.069028 211.78097 
L 218.08463 211.798846 
L 218.256257 211.921954 
L 218.287461 211.890047 
L 218.412281 211.824699 
L 218.443485 211.863758 
L 218.622913 212.074262 
L 218.66972 212.034718 
L 218.825744 212.032233 
L 218.989569 212.045883 
L 219.223605 211.978068 
L 219.566858 211.949445 
L 219.894508 212.13436 
L 221.189506 211.820878 
L 221.392337 211.970956 
L 221.517156 212.029031 
L 221.548361 211.995044 
L 221.766795 211.811249 
L 221.790198 211.830219 
L 222.242668 212.089386 
L 222.398691 212.074545 
L 222.624926 211.965194 
L 223.022787 212.052604 
L 223.233419 211.746822 
L 223.280226 211.784315 
L 223.600075 211.955902 
L 223.82631 211.781964 
L 223.974533 211.695315 
L 224.005738 211.723908 
L 224.247575 211.837532 
L 224.622032 211.940717 
L 225.292935 212.090649 
L 225.487965 212.136426 
L 225.675193 212.206168 
L 226.073054 212.075317 
L 226.23688 212.117944 
L 226.260283 212.079574 
L 226.463114 211.781857 
L 226.509921 211.8264 
L 226.75956 211.97601 
L 227.188625 211.901499 
L 227.368053 212.027554 
L 227.399258 211.991858 
L 227.641095 211.837767 
L 228.038956 211.801519 
L 228.26519 211.600651 
L 228.421214 211.318289 
L 228.46022 211.340771 
L 228.670852 211.624235 
L 228.795672 211.891456 
L 228.842479 211.833392 
L 228.928292 211.753448 
L 228.967298 211.809099 
L 229.053111 211.920247 
L 229.092117 211.841052 
L 229.201334 211.502005 
L 229.255942 211.670812 
L 229.357358 212.13635 
L 229.404165 211.920692 
L 229.552388 210.609114 
L 229.614797 210.964116 
L 229.981453 213.614925 
L 229.997056 213.562093 
L 230.067266 212.272062 
L 230.254495 208.033862 
L 230.309103 208.271344 
L 230.472929 210.589603 
L 230.660157 214.313805 
L 230.714766 213.734468 
L 230.894193 210.43477 
L 230.964404 210.943795 
L 231.073621 211.800358 
L 231.128229 211.619917 
L 231.46368 209.354245 
L 231.518289 209.67594 
L 231.728921 212.536007 
L 231.822535 212.02646 
L 231.91615 211.598991 
L 231.962957 211.740231 
L 232.11118 212.552804 
L 232.165788 212.296899 
L 232.470035 208.500099 
L 232.96151 201.345426 
L 232.984913 201.389652 
L 233.09413 201.875203 
L 233.164341 201.692061 
L 233.187745 201.66197 
L 233.218949 201.769013 
L 233.312564 203.3059 
L 233.429582 204.828099 
L 233.48419 204.732871 
L 233.499792 204.727776 
L 233.523196 204.814369 
L 233.593407 206.120818 
L 233.81184 216.321564 
L 234.638767 271.001116 
L 234.693375 269.940523 
L 234.841598 258.913727 
L 235.411085 202.856153 
L 235.855753 137.899222 
L 236.019578 117.746293 
L 236.152199 90.45762 
L 236.206807 96.07885 
L 236.690481 177.573611 
L 236.955722 221.241422 
L 237.220963 250.158773 
L 237.65783 280.920833 
L 237.673432 281.009865 
L 237.712438 280.447885 
L 237.852859 272.815074 
L 238.157106 246.628321 
L 238.7734 200.677268 
L 239.179063 195.162805 
L 239.280478 195.286135 
L 239.350689 195.607529 
L 239.459906 197.800715 
L 239.935779 208.371865 
L 240.216622 210.905177 
L 240.349242 210.985643 
L 240.559874 212.308119 
L 240.645687 211.79693 
L 240.825115 209.848959 
L 240.879723 210.17106 
L 241.18397 213.527144 
L 241.254181 213.15905 
L 241.418006 211.129522 
L 241.480415 211.69625 
L 241.64424 214.509607 
L 241.70665 213.910115 
L 242.042101 209.114763 
L 242.065505 209.151458 
L 242.135716 209.859712 
L 242.315143 212.65928 
L 242.377553 212.29821 
L 242.502372 211.456706 
L 242.55698 211.599615 
L 242.61939 211.720735 
L 242.666197 211.591023 
L 242.759811 211.233107 
L 242.81442 211.409415 
L 242.939239 212.13972 
L 243.001648 211.925792 
L 243.110865 211.425073 
L 243.165473 211.565802 
L 243.298094 212.007163 
L 243.360503 211.947209 
L 243.493124 211.959408 
L 243.571136 211.884241 
L 243.890985 211.229985 
L 243.914388 211.245298 
L 244.023605 211.517443 
L 244.242038 211.924121 
L 244.77252 211.949673 
L 244.975351 212.31423 
L 245.03776 212.21068 
L 245.217188 211.961046 
L 245.248393 211.978918 
L 245.521434 212.027794 
L 245.747669 211.995383 
L 245.942699 211.891477 
L 245.966103 211.921421 
L 246.161132 212.174109 
L 246.215741 212.119373 
L 246.395168 212.065555 
L 246.613602 212.086647 
L 246.86324 211.971133 
L 247.066071 211.915599 
L 247.463932 211.933034 
L 248.719925 212.060259 
L 248.836942 212.097325 
L 248.860346 212.068633 
L 249.070978 211.847284 
L 249.109984 211.885071 
L 249.422032 212.09492 
L 249.695074 212.054816 
L 250.475193 211.831168 
L 250.64682 211.744065 
L 250.670223 211.769862 
L 250.873054 211.943101 
L 250.904259 211.914543 
L 251.294319 211.658843 
L 251.450343 211.750612 
L 251.62977 211.773374 
L 251.793595 211.794204 
L 252.012029 211.892233 
L 252.136848 211.967196 
L 252.355282 212.112987 
L 252.706335 211.938205 
L 252.955974 211.909693 
L 253.486455 212.005633 
L 253.603473 211.999064 
L 253.619075 212.017279 
L 253.743894 212.100694 
L 253.775099 212.060478 
L 253.954527 211.799712 
L 254.009135 211.851936 
L 254.126153 211.894823 
L 254.157358 211.859448 
L 254.313382 211.740019 
L 254.344586 211.770411 
L 254.594225 211.907826 
L 255.062296 211.754962 
L 255.210519 211.744401 
L 255.421151 211.700988 
L 255.67079 211.817539 
L 255.811211 211.902761 
L 255.834615 211.885886 
L 256.021843 211.873487 
L 256.528921 212.057889 
L 256.864372 212.002646 
L 257.316842 212.018652 
L 257.89413 211.841169 
L 258.643045 211.824753 
L 258.908286 211.91181 
L 259.056508 211.898261 
L 259.243737 211.85574 
L 259.46217 211.899632 
L 260.117471 211.885089 
L 260.296898 211.963473 
L 260.491928 212.060569 
L 260.507531 212.045645 
L 260.749368 211.945739 
L 261.162831 211.954837 
L 261.521686 211.884102 
L 261.708915 211.864943 
L 261.864939 211.871508 
L 262.044366 211.909334 
L 262.20039 211.929609 
L 262.348613 211.977748 
L 262.364215 211.961503 
L 262.606052 211.83945 
L 262.941504 211.948884 
L 263.214545 211.967914 
L 263.565599 211.904894 
L 263.986864 211.892995 
L 265.328669 211.917434 
L 265.547103 211.963992 
L 266.022976 211.930996 
L 266.342825 212.019592 
L 266.483246 211.844001 
L 266.631469 211.633427 
L 266.670475 211.681899 
L 266.795294 212.210906 
L 266.935716 212.711532 
L 266.982523 212.636393 
L 267.099541 211.807035 
L 267.255565 210.771486 
L 267.294571 210.874885 
L 267.450595 212.293839 
L 267.544209 212.707871 
L 267.598817 212.588783 
L 267.840654 211.109446 
L 267.926467 211.537669 
L 268.090293 212.583927 
L 268.144901 212.475352 
L 268.433545 211.436568 
L 268.488154 211.555774 
L 268.644177 212.219339 
L 268.714388 212.033799 
L 268.808003 211.717431 
L 268.862611 211.853823 
L 269.026436 212.611999 
L 269.088846 212.488269 
L 269.166858 212.372648 
L 269.213665 212.460564 
L 269.307279 212.683305 
L 269.354086 212.562563 
L 269.471104 211.324783 
L 269.634929 209.842209 
L 269.673935 209.949717 
L 269.783152 211.296364 
L 269.985983 213.613945 
L 270.017188 213.564772 
L 270.181013 212.627427 
L 270.61788 210.445865 
L 270.680289 210.563518 
L 270.890922 211.771099 
L 271.070349 212.659957 
L 271.109355 212.573706 
L 271.27318 211.844249 
L 271.343391 212.05482 
L 271.444807 212.364526 
L 271.491614 212.26447 
L 271.834866 210.545914 
L 271.928481 209.985735 
L 271.975288 210.197453 
L 272.240528 212.520963 
L 272.310739 212.166707 
L 272.505769 209.693957 
L 272.57598 210.457728 
L 272.786612 214.299922 
L 272.849022 213.964101 
L 273.012847 210.913454 
L 273.114262 209.614439 
L 273.16107 209.944201 
L 273.309292 213.968674 
L 273.457515 215.998738 
L 273.48872 215.93256 
L 273.714954 214.896019 
L 273.792966 215.10667 
L 274.003599 216.673094 
L 274.073809 216.11739 
L 274.47167 209.900539 
L 274.526279 210.396883 
L 274.697905 215.091238 
L 274.768116 213.421105 
L 274.939742 206.796428 
L 274.99435 207.52411 
L 275.103567 209.267476 
L 275.158176 208.858787 
L 275.478025 202.384706 
L 275.524832 201.911968 
L 275.57944 202.452493 
L 275.782271 209.413142 
L 276.039711 216.092539 
L 276.094319 215.660699 
L 276.273746 212.885692 
L 276.343957 213.158089 
L 276.414168 213.382688 
L 276.460975 213.253041 
L 276.570192 212.861955 
L 276.616999 212.984197 
L 276.718415 213.317934 
L 276.765222 213.200175 
L 276.851035 212.878356 
L 276.897842 213.057173 
L 277.022661 215.152097 
L 277.14748 216.489714 
L 277.186486 216.344057 
L 277.34251 214.46318 
L 277.59995 212.50355 
L 277.779377 211.49245 
L 278.06022 210.007103 
L 278.083624 210.026444 
L 278.169437 210.427792 
L 278.458081 212.27072 
L 278.51269 212.204971 
L 278.754527 211.849285 
L 278.785731 211.8681 
L 279.121183 211.964341 
L 280.143139 211.894267 
L 280.40838 211.950571 
L 280.626813 211.914064 
L 281.024674 211.90928 
L 282.959371 211.918507 
L 283.193407 211.921301 
L 283.489852 211.893224 
L 283.879912 211.849007 
L 284.19196 211.864777 
L 284.371387 212.060344 
L 284.402592 212.035288 
L 284.730242 211.846061 
L 285.307531 211.903943 
L 285.681988 211.907092 
L 286.181265 211.869763 
L 286.462108 211.894652 
L 287.19542 211.856231 
L 287.484064 211.95253 
L 288.326593 211.894724 
L 288.607436 211.911386 
L 289.176924 211.976296 
L 290.230085 211.912312 
L 290.581139 211.981579 
L 291.486077 211.978749 
L 291.69671 211.978768 
L 291.930746 211.942462 
L 292.117974 211.895425 
L 292.359811 211.852193 
L 292.882491 211.975587 
L 293.288154 211.923419 
L 293.514388 211.939116 
L 293.756225 211.899681 
L 294.099478 211.838688 
L 294.255502 211.860895 
L 294.434929 211.86465 
L 294.606556 211.886528 
L 294.762579 211.848476 
L 294.949808 211.841129 
L 295.456886 211.931569 
L 296.494445 211.842407 
L 296.689475 211.878866 
L 296.868902 211.91344 
L 297.063932 211.93007 
L 297.297968 211.920575 
L 297.516401 211.880765 
L 297.906461 211.865912 
L 298.397936 211.919508 
L 298.772394 212.002542 
L 298.983026 212.002848 
L 299.302875 212.035994 
L 300.043989 211.832422 
L 300.223416 211.822444 
L 300.426247 212.006855 
L 300.465253 211.965174 
L 300.613476 211.911071 
L 300.629078 211.924792 
L 300.738295 211.940516 
L 300.761699 211.908611 
L 300.878717 211.771 
L 300.925524 211.844468 
L 301.112752 212.321455 
L 301.175162 212.234534 
L 301.385794 212.048448 
L 301.736848 212.22229 
L 301.869468 212.301712 
L 301.900673 212.264529 
L 302.041095 211.795076 
L 302.20492 211.367452 
L 302.243926 211.415298 
L 302.368745 211.966124 
L 302.516968 212.504521 
L 302.555974 212.45572 
L 302.743202 211.678139 
L 302.844618 211.546522 
L 302.883624 211.581264 
L 303.180069 212.059933 
L 303.273684 211.957869 
L 303.523322 211.853714 
L 304.077207 211.621059 
L 304.451664 211.72023 
L 304.599887 211.821819 
L 304.631092 211.789466 
L 304.911935 211.556254 
L 304.927537 211.569678 
L 305.060157 211.853864 
L 305.223982 212.215954 
L 305.262988 212.172462 
L 305.458018 211.791837 
L 305.512627 211.894017 
L 305.715458 212.63401 
L 305.777867 212.431321 
L 306.027506 210.492864 
L 306.12112 210.90505 
L 306.300547 211.904525 
L 306.347355 211.758109 
L 306.456571 210.390248 
L 306.714011 207.176818 
L 306.737414 207.186633 
L 306.893438 207.179472 
L 306.963649 207.222147 
L 306.979251 207.256054 
L 307.080667 207.43722 
L 307.127474 207.348341 
L 307.213287 207.138301 
L 307.252293 207.262796 
L 307.642353 210.430392 
L 307.790576 212.983822 
L 307.845184 212.78493 
L 307.88419 212.67634 
L 307.923196 212.943084 
L 308.024612 216.072745 
L 308.352262 225.608478 
L 308.422472 226.145065 
L 308.484882 225.923191 
L 308.53949 225.720801 
L 308.586298 225.93019 
L 308.73452 227.699326 
L 308.79693 227.105667 
L 309.38202 217.743013 
L 309.460031 216.353046 
L 309.857892 200.448817 
L 310.084127 194.643079 
L 310.107531 194.692701 
L 310.216747 195.717999 
L 310.411777 199.345864 
L 310.552199 201.44478 
L 310.599006 201.325532 
L 310.653614 201.171137 
L 310.69262 201.328827 
L 310.825241 203.460366 
L 311.106084 206.200028 
L 311.121686 206.231938 
L 311.160692 206.082741 
L 311.269909 205.167296 
L 311.316716 205.636835 
L 311.745782 214.439126 
L 311.808191 213.820715 
L 311.925209 212.187711 
L 311.972016 212.679722 
L 312.143643 215.699331 
L 312.213853 215.332773 
L 312.362076 215.068776 
L 312.45569 214.693661 
L 312.486895 214.642047 
L 312.5181 214.780374 
L 312.611714 216.579302 
L 312.986172 226.296845 
L 313.04078 225.580822 
L 313.23581 219.762162 
L 313.321623 220.705221 
L 313.376232 221.170133 
L 313.423039 220.563606 
L 313.898912 208.56623 
L 313.945719 209.536777 
L 314.070538 213.959759 
L 314.125146 212.574536 
L 314.273369 206.677152 
L 314.335779 207.376421 
L 314.382586 207.791206 
L 314.429393 207.201705 
L 314.554212 204.13882 
L 314.616622 205.105927 
L 314.73364 207.77215 
L 314.788248 207.234054 
L 314.889663 205.893228 
L 314.936471 206.358483 
L 315.381139 214.440646 
L 315.451349 213.986852 
L 315.841409 210.767575 
L 315.857012 210.777249 
L 315.942825 211.126927 
L 316.145656 211.605763 
L 316.49671 211.886111 
L 316.816559 211.810733 
L 317.003787 211.82533 
L 317.167612 211.881379 
L 317.378245 211.9383 
L 317.573275 211.96743 
L 317.822913 212.000153 
L 318.267581 212.047029 
L 318.603032 211.976889 
L 318.922881 211.869173 
L 319.765411 211.866298 
L 319.96044 211.899451 
L 320.108663 211.866619 
L 320.241283 211.812529 
L 320.272488 211.847584 
L 320.420711 211.944107 
L 320.451916 211.915622 
L 320.561132 211.880359 
L 320.592337 211.918811 
L 320.74056 212.068039 
L 320.787367 212.019787 
L 320.982397 211.935996 
L 321.598691 212.140801 
L 321.996552 211.930448 
L 322.17598 211.817104 
L 322.37101 211.799668 
L 322.519232 211.824139 
L 322.69866 211.985073 
L 322.737666 211.928373 
L 322.924895 211.570134 
L 322.987304 211.657756 
L 323.119925 211.831213 
L 323.15893 211.787048 
L 323.322756 211.594164 
L 323.369563 211.641562 
L 323.884442 212.359821 
L 323.970255 212.264574 
L 324.290104 212.008214 
L 325.37447 211.8429 
L 325.600705 211.890791 
L 325.842542 211.811072 
L 326.295011 211.983528 
L 326.474439 211.765618 
L 326.521246 211.81586 
L 326.653866 211.876887 
L 326.685071 211.849747 
L 326.817691 211.836651 
L 326.833293 211.855478 
L 327.082932 212.008929 
L 327.644618 211.956729 
L 327.816244 211.927782 
L 328.026876 211.945181 
L 328.175099 212.041475 
L 328.346725 212.054907 
L 329.399887 211.51972 
L 330.086392 211.908862 
L 330.211211 211.930517 
L 330.219012 211.941998 
L 330.375036 212.097315 
L 330.414042 212.053557 
L 330.53106 211.951661 
L 330.570066 211.998221 
L 330.819704 212.344369 
L 330.85871 212.319312 
L 331.607625 211.654237 
L 331.732444 211.644925 
L 331.748047 211.66043 
L 332.192715 211.969714 
L 332.613979 211.823155 
L 333.612532 211.882673 
L 333.979188 211.916685 
L 335.094759 211.945764 
L 336.007499 211.947902 
L 336.233734 211.895177 
L 336.584788 211.792392 
L 337.754967 211.946351 
L 337.918792 211.965689 
L 338.09822 212.018863 
L 338.308852 212.042713 
L 338.542888 212.041263 
L 338.706713 211.968395 
L 338.925146 211.913158 
L 339.299604 211.987416 
L 339.876892 211.874893 
L 340.212344 211.870669 
L 341.117282 211.903282 
L 341.780384 211.908965 
L 342.599509 211.912858 
L 345.1505 211.876345 
L 345.985228 211.95275 
L 347.451853 211.914552 
L 347.810708 211.838397 
L 349.082303 211.973076 
L 349.612784 211.990098 
L 352.631846 211.914642 
L 358.420333 211.917682 
L 359.169248 211.920637 
L 360.003976 211.914973 
L 363.803158 211.909722 
L 391.411589 211.910446 
L 398.487273 211.910533 
L 398.487273 211.910533 
" clip-path="url(#p19630f349f)" style="fill: none; stroke: #ff7f0e; stroke-width: 1.5; stroke-linecap: square"/>
   </g>
   <g id="patch_3">
    <path d="M 57.6 307.584 
L 57.6 41.472 
" style="fill: none; stroke: #000000; stroke-width: 0.8; stroke-linejoin: miter; stroke-linecap: square"/>
   </g>
   <g id="patch_4">
    <path d="M 414.72 307.584 
L 414.72 41.472 
" style="fill: none; stroke: #000000; stroke-width: 0.8; stroke-linejoin: miter; stroke-linecap: square"/>
   </g>
   <g id="patch_5">
    <path d="M 57.6 307.584 
L 414.72 307.584 
" style="fill: none; stroke: #000000; stroke-width: 0.8; stroke-linejoin: miter; stroke-linecap: square"/>
   </g>
   <g id="patch_6">
    <path d="M 57.6 41.472 
L 414.72 41.472 
" style="fill: none; stroke: #000000; stroke-width: 0.8; stroke-linejoin: miter; stroke-linecap: square"/>
   </g>
  </g>
 </g>
 <defs>
  <clipPath id="p19630f349f">
   <rect x="57.6" y="41.472" width="357.12" height="266.112"/>
  </clipPath>
 </defs>
</svg>
